PathFileType  4	(X/Y/Z) C:\Users\antoi\Documents\MyRepositories\mobilecap\ResultsAnalysis
DataRate	CameraRate	NumFrames	NumMarkers	Units	OrigDataRate	OrigDataStartFrame	OrigNumFrames
100.0	100.0	4	51	mm	100.0	354	1413
Frame#	Time	r_knee			r_shank_antsup			r_ankle			r_calc			r_5meta			r_toe			L_knee			L_shank_antsup			L_ankle			L_calc			L_5meta			L_toe			r_sh2			r_sh3			r_sh4			L_sh2			L_sh3			r_thigh1			r_thigh2			r_thigh3			r_thigh4			r_thigh5			L_thigh1			L_thigh2			L_thigh3			L_thigh4			r.ASIS			r.PSIS			L.ASIS			L.PSIS			C7			R_Shoulder			L_Shoulder			R_Sternum			L_Sternum			R_humerus			R_elbow_med			R_elbow_lat			R_forearm			R_wrist_radius			R_wrist_ulna			L_humerus			L_elbow_med			L_elbow_lat			L_forearm			L_wrist_radius			L_wrist_ulna			R_HJC			L_HJC			R_HJC_reg			L_HJC_reg			
		X1	Y1	Z1	X2	Y2	Z2	X3	Y3	Z3	X4	Y4	Z4	X5	Y5	Z5	X6	Y6	Z6	X7	Y7	Z7	X8	Y8	Z8	X9	Y9	Z9	X10	Y10	Z10	X11	Y11	Z11	X12	Y12	Z12	X13	Y13	Z13	X14	Y14	Z14	X15	Y15	Z15	X16	Y16	Z16	X17	Y17	Z17	X18	Y18	Z18	X19	Y19	Z19	X20	Y20	Z20	X21	Y21	Z21	X22	Y22	Z22	X23	Y23	Z23	X24	Y24	Z24	X25	Y25	Z25	X26	Y26	Z26	X27	Y27	Z27	X28	Y28	Z28	X29	Y29	Z29	X30	Y30	Z30	X31	Y31	Z31	X32	Y32	Z32	X33	Y33	Z33	X34	Y34	Z34	X35	Y35	Z35	X36	Y36	Z36	X37	Y37	Z37	X38	Y38	Z38	X39	Y39	Z39	X40	Y40	Z40	X41	Y41	Z41	X42	Y42	Z42	X43	Y43	Z43	X44	Y44	Z44	X45	Y45	Z45	X46	Y46	Z46	X47	Y47	Z47	X48	Y48	Z48	X49	Y49	Z49	X50	Y50	Z50	X51	Y51	Z51	

354	3.53000000	-186.78685	475.98736	-453.30814	-126.09410	412.91361	-458.64233	-261.79452	99.58806	-449.02745	-331.24294	62.88452	-483.63341	-161.18343	48.19866	-409.56766	-113.23436	75.22553	-463.07783	-189.20311	468.72892	-940.88193	-139.82362	389.03206	-955.61225	-265.03431	100.20475	-936.11349	-330.79186	62.26703	-891.39225	-162.49372	45.10907	-985.38909	-118.15495	68.72738	-933.35589	-173.05799	308.82564	-433.52785	-199.45978	441.30193	-436.67225	-241.04798	337.44542	-427.88017	-226.11225	414.62331	-950.13354	-252.47978	294.88987	-960.08859	-489.43225	559.36470	-505.10704	-381.47950	549.34453	-485.41181	-368.94822	489.89070	-451.41394	-505.51037	449.15434	-485.32239	-389.49610	438.54044	-465.02142	-455.58000	517.90957	-941.79916	-317.34454	518.95038	-941.22547	-454.53689	405.85080	-903.58804	-314.42454	413.58821	-920.06211	-483.55053	556.25759	-581.96170	-664.28221	600.25847	-660.84955	-481.86996	569.22691	-826.89341	-671.43602	604.76478	-752.46099	-536.43048	1008.47239	-707.01581	-465.03959	982.75202	-540.22456	-477.63584	981.62145	-875.45588	-400.37333	953.04625	-687.60858	-397.15291	949.87354	-725.47156	-491.41197	862.80145	-459.61641	-546.29690	647.48992	-476.45145	-533.26407	675.60839	-402.69808	-407.26281	717.31512	-438.38723	-293.74085	752.14868	-485.37812	-277.28427	721.33861	-478.16008	-489.69639	879.20587	-951.05810	-529.90598	644.30331	-932.89266	-524.15228	684.16370	-1008.08389	-432.18897	730.57920	-976.88184	-296.06510	774.45060	-931.22749	-284.95096	744.13970	-942.64625	-555.43676	477.67342	-609.44262	-554.79399	491.69483	-815.43242	-548.53004	488.32156	-614.32338	-561.11806	496.25030	-775.53176	
355	3.54000000	-187.53253	475.95827	-452.43378	-126.57100	413.03472	-457.67421	-262.05734	99.56342	-449.00502	-331.37244	62.76793	-483.66092	-161.31811	48.35229	-409.52021	-113.36619	75.46029	-462.91736	-189.35664	468.72708	-941.04201	-139.95025	389.00883	-955.67128	-265.10981	100.23136	-936.09995	-330.82706	62.22603	-891.40273	-162.52791	45.16799	-985.39079	-118.20063	68.80251	-933.36288	-173.51392	308.98854	-432.91082	-200.06258	441.27948	-435.68481	-241.52627	337.45824	-427.44689	-226.24095	414.61798	-950.08825	-252.62756	294.88924	-960.08912	-490.01015	559.52994	-504.73025	-381.26726	549.62061	-484.83276	-369.64144	489.96599	-450.75369	-506.15685	449.28936	-485.11502	-390.24428	438.56737	-464.47654	-455.82345	518.15237	-942.18577	-317.52292	519.05757	-941.62891	-454.82869	406.10454	-904.06237	-314.62597	413.63735	-920.17835	-483.16007	553.02194	-582.48674	-662.73213	601.57353	-661.28770	-483.81286	565.90453	-821.72984	-669.80568	606.13267	-752.35753	-525.39148	1007.08500	-706.01589	-454.37303	980.21707	-539.59290	-466.81758	979.71736	-874.16573	-390.32244	949.30747	-687.06025	-386.98468	946.41035	-724.36267	-483.49976	861.01626	-458.69615	-542.39356	646.72101	-475.64265	-529.98562	675.01380	-401.66317	-403.28416	714.86529	-436.81096	-289.06826	748.20536	-483.26449	-273.11090	717.20882	-475.99721	-481.07301	878.07013	-950.58978	-526.98814	643.55406	-932.25294	-520.30239	683.78611	-1007.65744	-427.79046	729.26350	-976.90457	-291.05675	771.33011	-931.62121	-280.29858	741.00581	-943.33716	-557.98820	476.42320	-608.10762	-556.54108	489.98939	-814.12575	-550.56318	488.54357	-613.71393	-562.79472	496.42799	-771.17805	
356	3.55000000	-188.20137	475.94062	-451.46205	-127.06458	413.15149	-456.50758	-262.34284	99.55692	-448.97367	-331.50548	62.66321	-483.74781	-161.53462	48.49704	-409.26990	-113.52728	75.59327	-462.78054	-189.47763	468.69176	-941.17266	-140.07426	388.95389	-955.80542	-265.20289	100.28826	-936.12457	-330.87799	62.17935	-891.41849	-162.57620	45.23448	-985.41663	-118.25768	68.88694	-933.38072	-173.84939	308.99830	-432.33741	-200.69549	441.21993	-434.88863	-241.97858	337.08033	-426.86396	-226.33191	414.62058	-950.05481	-252.77321	294.88448	-960.04825	-490.46639	559.69496	-504.34312	-381.55378	549.88874	-484.15345	-370.30406	490.01351	-450.13271	-506.74904	449.48249	-484.70837	-390.91409	438.61561	-463.78965	-455.96875	518.33255	-942.49034	-317.70003	519.13769	-941.94281	-455.10993	406.32803	-904.38276	-314.85011	413.74862	-920.47711	-483.12017	549.76452	-582.36857	-661.18171	602.97799	-661.51871	-484.29239	564.01011	-818.82355	-668.01006	607.49141	-752.45740	-513.72246	1005.46668	-704.98174	-443.01065	977.20238	-539.29041	-455.33370	977.52180	-872.82357	-379.69928	945.18972	-686.33101	-376.29319	942.54091	-723.27402	-475.11996	858.92941	-457.73090	-538.89890	646.16605	-474.78279	-526.56735	674.10417	-400.80751	-399.15650	712.28232	-435.07300	-284.25538	744.03387	-481.03172	-268.82124	712.89027	-473.50612	-471.83692	876.67204	-949.91761	-523.35898	642.80282	-932.04688	-516.37178	683.52169	-1007.36068	-423.24577	727.82230	-976.67277	-285.82190	767.94673	-932.06330	-275.48474	737.63691	-944.09546	-559.99806	475.10928	-607.76963	-557.40646	489.39819	-813.72480	-552.46488	488.82071	-612.99463	-564.15739	496.54955	-768.71331	
357	3.56000000	-188.79286	475.93192	-450.36409	-127.55110	413.17460	-455.30784	-262.54159	99.58296	-448.91381	-331.63051	62.62624	-483.86052	-161.74117	48.58083	-408.95826	-113.68757	75.64181	-462.66412	-189.54659	468.64178	-941.39483	-140.18480	388.87118	-956.06422	-265.30060	100.31408	-936.11614	-330.93420	62.14109	-891.43474	-162.61993	45.34358	-985.46833	-118.32468	69.00793	-933.37719	-174.23648	308.81804	-431.68103	-201.25863	441.13956	-434.05871	-242.46887	336.95956	-426.21109	-226.36722	414.60211	-950.09382	-252.87268	294.90757	-960.02145	-490.73049	559.97174	-503.91893	-382.17634	549.93808	-483.45619	-370.85836	490.02506	-449.57802	-507.29245	449.83910	-484.24337	-391.49562	438.68088	-463.19740	-456.07747	518.48423	-942.95676	-317.81383	519.15710	-942.21750	-455.34688	406.52187	-904.54670	-315.07393	413.89221	-920.90936	-483.32938	546.32895	-581.81832	-659.58407	604.33052	-661.57995	-483.00649	563.69743	-818.64587	-666.00617	608.88376	-752.56354	-501.38759	1003.61076	-703.90279	-431.12414	973.88003	-538.85848	-443.17630	975.03500	-871.53451	-368.50235	940.73838	-685.22783	-365.06064	938.29025	-722.20032	-466.18487	856.58147	-456.72967	-535.67682	645.66623	-473.78414	-523.08323	673.31416	-399.64831	-394.83709	709.55017	-433.32246	-279.29053	739.64033	-478.60173	-264.34581	708.30323	-470.89620	-462.08778	874.87670	-949.00613	-519.53419	642.51006	-931.88016	-512.35359	683.44505	-1007.12514	-418.45111	726.15952	-976.36224	-280.38857	764.30404	-932.64448	-270.51485	733.99706	-944.80307	-561.24702	473.56251	-608.74997	-557.29907	490.08240	-814.51503	-554.01743	488.82142	-612.55935	-565.03731	496.63563	-768.70704	
